# xmcd
#
# Track frame offsets:
#   150
#   11385
#   26479
#   42641
#   54557
#   59411
#   77710
#   91952
#   113905
#   129979
#   145359
#   159460
#
# Disc length: 2294 seconds
#
# Revision: 0
# Processed by: cddbd v1.5PL3 Copyright (c) Steve Scherf et al.
# Submitted via: CDDB2my 1.0.0
#
DISCID=9b08f40c
DTITLE=Carla Buni - Quelqu'un m'a dit
DYEAR=2002
DGENRE=Blues
TTITLE0=Quelqu'un m'a dit
TTITLE1=Raphael
TTITLE2=Tout le monde
TTITLE3=La noyée
TTITLE4=Le toi du moi
TTITLE5=Le ciel dans une chambre
TTITLE6=J'en connais
TTITLE7=Le plus beau du quartier
TTITLE8=Chanson triste
TTITLE9=L'excessive
TTITLE10=L'amour
TTITLE11=La dernière minute
EXTD=
EXTT0=
EXTT1=
EXTT2=
EXTT3=
EXTT4=
EXTT5=
EXTT6=
EXTT7=
EXTT8=
EXTT9=
EXTT10=
EXTT11=
PLAYORDER=
